<svg xmlns="http://www.w3.org/2000/svg" width="56" height="60"><path d="m554.467 478.028-3.317-12.238a4.395 4.395 0 0 0 1.052-2.857 4.46 4.46 0 0 0-8.9-.4l-23.729 5.533a4.458 4.458 0 0 0-7.212 3.481 4.411 4.411 0 0 0 1.366 3.192l-1.791 8.507a4.432 4.432 0 1 0 3.358 7.819l21.491 10.4a4.459 4.459 0 0 0 8.9-.4 4.391 4.391 0 0 0-.559-2.145l7.724-12.184a4.43 4.43 0 0 0 1.617-8.708Zm-4.821 6.493-7.715 12.171a4.413 4.413 0 0 0-3.744 1.136l-21.267-10.293a4.421 4.421 0 0 0-1.275-2.993l1.814-8.617a4.442 4.442 0 0 0 3.82-4.278l23.436-5.464a4.417 4.417 0 0 0 2.824 1.179l3.143 11.6a4.4 4.4 0 0 0-1.036 5.559Z" transform="translate(-505 -452)" style="fill:#2c3e50;fill-rule:evenodd" data-name="side panel_fields"/></svg>