<svg xmlns="http://www.w3.org/2000/svg" viewBox="0 0 56 60" style="enable-background:new 0 0 56 60" xml:space="preserve"><path d="M45.2 32.1c0 .6-.5 1.1-1.1 1.1h-7.3l-4.5 5.1-4.6-5.1h-7.4c-.6 0-1.1-.5-1.1-1.1V12.3c0-.6.5-1.1 1.1-1.1h16.1l4-4h-20c-2.8 0-5.1 2.3-5.1 5.2v19.8c0 2.9 2.3 5.1 5.1 5.1h4.9l6.9 7.8 6.6-7.8H44c2.9 0 5.2-2.2 5.2-5.1V18.4l-4 3.9v9.8zm5-24.8c-.8-.8-2.1-.8-2.9 0L32 22.7l-3.6-3.6c-.8-.8-2.1-.8-2.9 0-.8.8-.8 2.1 0 2.9l5 5c.8.8 2.1.8 2.9 0l16.8-16.8c.8-.8.8-2.1 0-2.9zM22 46.7l-4.4-5.5h-7.3c-.6 0-1.1-.5-1.1-1.1V20.3c0-.5.6-1.1 1.1-1.1h.9v-4h-.9c-2.9 0-5.1 2.3-5.1 5V40c0 2.8 2.1 5.2 5.1 5.2h4.9l6.6 8 5.8-7-2.5-3.2-3.1 3.7z" style="fill:#2c3e50"/></svg>