<svg version="1.1" id="Layer_1" xmlns="http://www.w3.org/2000/svg" x="0" y="0" viewBox="0 0 56 60" style="enable-background:new 0 0 56 60" xml:space="preserve"><style>.st0{fill:#2c3e50}</style><path class="st0" d="m29.2 14 4.3-7.5c.5-.9-.1-2-1.2-2h-8.6c-1 0-1.7 1.1-1.2 2l4.3 7.5c.5.9 1.9.9 2.4 0zm-6.9 25.9c1.2 0 2.2-.9 2.2-2.2 0-1.2-.9-2.2-2.2-2.2-1.2 0-2.2.9-2.2 2.1 0 .6.2 1.2.6 1.6.4.4 1 .7 1.6.7zm11.8-4.3c-1.2 0-2.2.9-2.2 2.1 0 .6.2 1.2.6 1.6.4.4.9.6 1.5.6 1.2 0 2.2-.9 2.2-2.2.1-1-.9-2-2.1-2.1z"/><path class="st0" d="M49.5 31.3c-.3-.4-.8-.6-1.4-.7h-5l-.9-5.5c-.1-3.4-2.9-6.2-6.3-6.2H20.2c-3.4 0-6.3 2.8-6.3 6.2l-.9 5.7H8.1c-1 0-1.9.9-1.9 1.9 0 .5.2 1 .6 1.4.4.3.8.5 1.3.6h5.7c-.5 1.3-.8 2.8-.8 4.5 0 5.7 3.4 11.1 8.5 13.6 1.9.9 4 1.4 6.3 1.4 2.2 0 4.5-.5 6.7-1.4 1.5-.7 2.9-1.7 4.1-3 2.8-2.9 4.4-6.6 4.4-10.6 0-1.6-.2-3.1-.7-4.6H48c1 0 1.9-.9 1.9-1.8 0-.6-.1-1.1-.4-1.5zm-10 7.8c0 6.2-5 11.3-11.2 11.4h-.5c-6.2-.1-11.2-5.2-11.2-11.4 0-1.6.3-3.2 1-4.6h20.8c.7 1.5 1.1 3 1.1 4.6zm-.9-13.7.8 5.3-22.7.1.8-5.1v-.3c0-1.5 1.2-2.7 2.7-2.7h15.7c1.4-.1 2.6 1.1 2.7 2.7z"/><path class="st0" d="M31.2 43.2c-.8.8-1.9 1.2-3 1.2s-2.2-.4-3-1.2c-.8-.8-2-.8-2.8 0-.8.8-.8 2 0 2.8 1.6 1.6 3.6 2.4 5.8 2.4 2.2 0 4.3-.9 5.8-2.4.8-.8.8-2 0-2.8s-2-.8-2.8 0z"/></svg>